<?xml version="1.0" encoding="UTF-8" standalone="no"?>
<!-- Created with Inkscape (http://www.inkscape.org/) -->

<svg
   width="251.58279mm"
   height="285.9668mm"
   viewBox="0 0 251.58279 285.96681"
   version="1.1"
   id="svg5"
   xml:space="preserve"
   inkscape:version="1.2.2 (732a01da63, 2022-12-09)"
   sodipodi:docname="Mazama amaricana.svg"
   xmlns:inkscape="http://www.inkscape.org/namespaces/inkscape"
   xmlns:sodipodi="http://sodipodi.sourceforge.net/DTD/sodipodi-0.dtd"
   xmlns="http://www.w3.org/2000/svg"
   xmlns:svg="http://www.w3.org/2000/svg"><sodipodi:namedview
     id="namedview7"
     pagecolor="#ffffff"
     bordercolor="#000000"
     borderopacity="0.25"
     inkscape:showpageshadow="2"
     inkscape:pageopacity="0.0"
     inkscape:pagecheckerboard="0"
     inkscape:deskcolor="#d1d1d1"
     inkscape:document-units="mm"
     showgrid="false"
     inkscape:zoom="0.5946522"
     inkscape:cx="-106.78511"
     inkscape:cy="468.34099"
     inkscape:window-width="1920"
     inkscape:window-height="1111"
     inkscape:window-x="-9"
     inkscape:window-y="-9"
     inkscape:window-maximized="1"
     inkscape:current-layer="layer1" /><defs
     id="defs2" /><g
     inkscape:label="Capa 1"
     inkscape:groupmode="layer"
     id="layer1"
     transform="translate(-58.486402,64.994933)"><path
       style="fill:#020202;stroke:none;stroke-width:0.264583"
       d="m 105.4347,-40.425838 c -1.6973,0.33777 -2.82733,1.797583 -4.49791,2.202131 -1.912677,0.462757 -3.883029,-0.971603 -5.556254,-1.648251 -0.847196,-0.34258 -2.363523,-0.35292 -2.903008,-1.16694 -0.720725,-1.08686 -0.441325,-3.63519 -0.611188,-4.94319 -0.560387,-4.31527 -0.81915,-8.647 -1.441185,-12.96458 -0.279665,-1.94059 -0.219075,-5.35762 -2.717536,-5.55625 -1.229254,5.37768 -1.367102,11.96523 -0.718343,17.4625 0.382323,3.23705 1.799431,7.15923 -0.869157,9.525001 -2.426599,-8.426481 -7.921307,-15.389201 -16.66875,-17.627041 -2.817548,-0.72083 -8.55971,-1.28141 -10.20177,1.75611 -1.17037,2.16498 -0.64615,5.29546 -0.64615,7.66885 0,7.848333 1.18915,15.853831 8.46667,20.449379 3.625533,2.289705 9.279546,1.562894 12.348448,4.521994 3.670115,3.538538 4.753663,12.7346607 4.759643,17.6265427 0.007,5.742781 -2.899754,11.195314 -4.170045,16.6687503 -0.272918,1.176073 0.114591,2.28309 -0.144145,3.449902 -2.851679,12.862455 -7.064613,26.328424 -6.155637,39.677183 0.854313,12.546013 4.080669,23.921245 10.258319,34.925001 1.734847,3.090334 3.600688,6.317192 5.934049,8.995836 1.048279,1.20306 3.393281,2.40929 3.808148,3.97907 2.259277,8.5471 0.416718,17.86969 -0.40005,26.44801 -0.715169,7.50994 -1.891771,15.20852 -2.093119,22.75417 -0.068,2.54794 0.515144,5.12207 0.456671,7.67291 -0.08281,3.61607 -0.925777,7.248 -1.273969,10.84792 -0.26379,2.72415 -0.209815,5.5761 -1.076854,8.20209 -2.375959,7.19746 -6.669935,13.72129 -9.703965,20.6375 -1.48582,3.38666 -4.870846,4.86304 -7.784782,6.8871 -0.782664,0.5424 -2.720393,1.80446 -1.840865,3.00831 0.956178,1.30969 5.160777,0.9525 6.603153,0.9525 1.511512,0 3.641805,0.14552 5.016659,-0.57679 1.631315,-0.8546 2.90404,-3.07446 4.091623,-4.45029 2.9083,-3.3655 6.471443,-6.223 7.295885,-10.84792 2.479675,1.25783 1.98464,-2.67123 2.193131,-4.23333 0.66675,-4.99322 3.081073,-10.33648 4.767528,-15.08125 1.263125,-3.55389 0.08361,-5.7277 -0.07117,-9.26042 -0.118798,-2.71277 0.569645,-5.5663 1.160465,-8.20208 0.65537,-2.92365 1.95262,-5.61631 2.82839,-8.46667 2.69664,-8.77755 5.55334,-17.55404 7.80812,-26.45833 1.08347,-4.27911 1.68646,-8.7384 2.93555,-12.96459 0.37836,-1.28031 0.73951,-3.55335 2.44052,-3.67188 1.45971,-0.10187 1.85182,3.67453 2.07539,4.73022 1.11972,5.28796 1.64121,11.01063 1.64333,16.40416 0.004,11.46467 -2.66409,22.43773 -2.64583,33.86667 0.008,4.97046 2.13148,9.62263 2.60085,14.55209 0.63791,6.69819 -1.27741,14.02397 -3.24538,20.37291 -1.63962,5.28902 -6.86832,9.51442 -10.99714,12.87727 -1.39356,1.13507 -5.59144,1.44992 -5.59144,3.7809 0,1.00542 1.09061,1.27265 1.88754,1.32292 2.4892,0.1561 5.47502,0.91545 7.93723,0.47889 1.86214,-0.33073 3.61712,-2.28071 5.02709,-3.44487 3.73644,-3.08769 7.07337,-4.96623 7.9375,-9.98802 3.11467,0.35718 1.66449,-3.05065 2.11772,-5.29167 1.11257,-5.50228 2.88211,-10.72674 2.90962,-16.40417 0.0926,-19.22648 6.69396,-38.99905 11.68136,-57.41458 1.20094,-4.43362 2.77733,-8.77914 3.89519,-13.22917 0.27305,-1.08691 0.46514,-4.15184 1.68143,-4.55798 1.03611,-0.34581 2.79665,0.0601 3.90843,0.0601 3.2631,0 6.52647,0.0156 9.78958,-2.6e-4 8.27775,-0.04 17.12304,-0.82127 25.13542,-3.0226 3.90604,-1.07315 7.75546,-2.34262 11.64166,-3.479537 1.3343,-0.39026 3.37768,-1.363133 4.7625,-0.92075 3.65311,1.167607 7.72954,5.384007 10.84792,7.647517 6.11452,4.43839 12.81589,8.46296 19.31458,12.31609 5.11705,3.03398 10.25949,6.01371 15.34584,9.10167 3.39407,2.06057 7.58507,4.87547 9.42525,8.52037 1.39409,2.76199 1.27953,5.98303 1.14776,8.99584 -0.50747,11.58743 -3.73856,23.85483 -7.98089,34.66042 -2.78659,7.09771 -6.83842,13.68107 -8.52514,21.16666 -0.98795,4.38415 -4.00579,6.04573 -7.29509,8.7974 -0.98081,0.82021 -2.94534,2.35214 -2.10635,3.86292 0.98081,1.76741 5.26706,0.91016 6.86779,0.67997 2.39554,-0.34395 3.8182,-1.65893 5.82083,-2.90777 4.60243,-2.87337 7.42157,-5.09852 9.70704,-10.16793 1.41552,-3.13981 3.05408,-6.14284 4.49474,-9.26042 0.49848,-1.07844 0.50297,-2.3667 1.05225,-3.40122 0.61595,-1.15993 2.35214,-0.46593 2.76092,-1.66582 0.6948,-2.04046 -1.36604,-4.9149 -1.31206,-7.10379 0.13149,-5.32792 2.03252,-11.06223 3.51763,-16.13959 1.4732,-5.03608 2.46512,-10.41294 4.12221,-15.34583 2.00554,-5.97059 4.76144,-12.13274 4.76144,-18.52084 8.27114,5.65574 14.44202,15.91734 17.34741,25.4 1.93172,6.30476 2.60641,12.92596 4.18279,19.31459 1.66952,6.76539 3.04271,13.39162 3.35095,20.37292 0.10425,2.35981 0.54928,4.78102 0.1315,7.14375 -0.97129,5.49804 -4.24577,9.44562 -8.3439,13.03866 -0.91678,0.80434 -4.7707,3.48986 -4.37594,4.89479 0.27463,0.97367 2.00792,0.90488 2.78844,1.00278 2.90063,0.37306 6.49975,-0.32015 9.26042,-1.21709 2.97233,-0.96573 3.84466,-4.01108 5.50307,-6.34206 3.58007,-5.02708 8.52143,-7.22048 5.87401,-14.2875 1.66873,-0.27861 1.16311,-1.62004 0.82444,-2.91042 -0.69903,-2.66303 -1.96823,-5.04851 -2.75034,-7.67291 -1.83833,-6.16771 -2.59318,-12.4968 -3.89573,-18.78542 -1.08823,-5.25383 -2.70457,-10.26636 -3.43879,-15.61042 -1.09431,-7.96528 -3.58378,-15.63608 -4.96093,-23.54792 -0.78714,-4.52278 -0.93372,-10.44733 -3.67454,-14.2875 -1.47399,-2.06507 -3.80947,-3.22421 -5.91661,-4.51405 -6.64157,-4.06559 -14.48726,-7.30224 -15.53475,-15.858863 -0.39528,-3.229505 0.12303,-10.985236 2.36511,-13.469145 1.99443,-2.209535 5.37396,-2.375164 6.87361,-5.051954 3.8354,-6.845565 5.32765,-14.297819 5.32765,-21.960153 0,-8.046244 -0.31194,-14.453129 -5.44406,-21.166667 -12.14041,-15.881086 -34.10611,-23.481243 -53.38339,-24.8943823 -5.59541,-0.410104 -10.79474,-1.034257 -16.40417,-0.168275 -7.16888,1.1067523 -13.87025,4.0547393 -20.6375,6.5278003 -6.11558,2.234671 -12.52564,4.077494 -18.78542,5.872163 -4.31323,1.236662 -8.52672,3.022864 -12.96458,3.808677 -8.97969,1.590146 -18.21074,1.559983 -27.25208,0.940064 -4.13147,-0.283104 -8.28305,-0.800629 -12.17084,-2.368814 -1.00885,-0.406929 -2.52386,-0.712788 -3.30464,-1.493838 -1.27635,-1.276879 -1.32133,-4.006056 -1.50178,-5.685896 -0.18415,-1.713442 -0.76755,-3.569758 -0.381,-5.291667 0.96097,-4.2828103 3.98119,-8.4042253 5.26124,-12.7000003 1.22449,-4.108715 1.79864,-8.162396 1.778,-12.4354167 -0.0161,-3.365236 -0.76544,-6.927321 0.9742,-10.054167 3.07128,-5.520532 9.23898,-6.396303 13.57418,-10.364788 6.13595,-5.616206 7.29536,-18.236166 3.98807,-25.617516 -1.94152,-4.3331 -7.04057,-1.61639 -9.80493,0.0529 -4.48707,2.70949 -8.9662,5.80998 -11.87953,10.26485 -1.95024,2.98241 -2.56275,7.4273 -5.31839,9.78958 -0.0172,-6.23686 0.64558,-13.44475 -0.1524,-19.57916 -0.14208,-1.094 -0.008,-5.55034 -1.49437,-5.77426 -1.65047,-0.2487 -2.04708,4.46145 -2.2098,5.50967 -0.96784,6.24184 -1.15305,12.748 -1.17051,19.05 m 167.74583,169.862478 -0.26458,0.26458 z"
       id="path987" /></g></svg>
