<?xml version="1.0" encoding="UTF-8" standalone="no"?>
<!-- Created with Inkscape (http://www.inkscape.org/) -->

<svg
   width="80.895248mm"
   height="31.833317mm"
   viewBox="0 0 80.895247 31.833317"
   version="1.1"
   id="svg5"
   xml:space="preserve"
   inkscape:version="1.2.2 (732a01da63, 2022-12-09)"
   sodipodi:docname="Panthera onca.svg"
   xmlns:inkscape="http://www.inkscape.org/namespaces/inkscape"
   xmlns:sodipodi="http://sodipodi.sourceforge.net/DTD/sodipodi-0.dtd"
   xmlns="http://www.w3.org/2000/svg"
   xmlns:svg="http://www.w3.org/2000/svg"><sodipodi:namedview
     id="namedview7"
     pagecolor="#ffffff"
     bordercolor="#000000"
     borderopacity="0.25"
     inkscape:showpageshadow="2"
     inkscape:pageopacity="0.0"
     inkscape:pagecheckerboard="0"
     inkscape:deskcolor="#d1d1d1"
     inkscape:document-units="mm"
     showgrid="false"
     inkscape:zoom="1.6819304"
     inkscape:cx="173.90731"
     inkscape:cy="116.83004"
     inkscape:window-width="1920"
     inkscape:window-height="1111"
     inkscape:window-x="-9"
     inkscape:window-y="-9"
     inkscape:window-maximized="1"
     inkscape:current-layer="layer1" /><defs
     id="defs2" /><g
     inkscape:label="Capa 1"
     inkscape:groupmode="layer"
     id="layer1"
     transform="translate(-87.733365,-142.60501)"><path
       style="fill:#000000;stroke-width:0.352778"
       d="m 151.2922,174.08539 c -0.40244,-0.40244 -0.25929,-1.27012 0.31406,-1.90366 l 0.54924,-0.60691 -1.26525,-1.9779 -1.26524,-1.97789 -2.3708,-1.61162 c -1.30395,-0.88638 -3.23136,-2.23604 -4.28314,-2.99922 -2.50073,-1.81456 -2.72016,-1.77285 -3.21508,0.61117 l -0.41494,1.99878 0.44366,1.34431 0.44366,1.34431 -0.97855,1.41205 c -0.5382,0.77662 -1.66066,1.97098 -2.49435,2.65413 l -1.5158,1.24208 h -2.33295 -2.33295 l -0.22263,-0.58018 -0.22264,-0.58018 0.66781,-0.48832 c 0.37929,-0.27734 1.05619,-0.40302 1.56673,-0.29089 l 0.8989,0.19744 1.13643,-1.11107 1.13643,-1.11107 v -1.03053 c 0,-0.56679 -0.29407,-1.61952 -0.65349,-2.33939 -0.35941,-0.71988 -0.84076,-2.10261 -1.06965,-3.07275 -0.39224,-1.66246 -1.08898,-3.70417 -1.26407,-3.70417 -0.0437,0 -0.56913,0.24431 -1.16769,0.54292 -0.59857,0.2986 -1.93265,0.62369 -2.96462,0.72241 -1.8389,0.17591 -3.77808,0.60755 -8.08379,1.79939 l -2.15053,0.59528 -0.31891,0.83879 c -0.1754,0.46135 -0.31891,2.08911 -0.31891,3.61724 0,1.52815 -0.15875,2.87655 -0.35278,2.99647 -0.19403,0.11992 -0.35278,0.59255 -0.35278,1.0503 0,0.45775 -0.0964,1.08338 -0.21413,1.39029 l -0.21413,0.55802 -1.46157,-0.004 c -0.80386,-0.002 -2.05687,-0.10228 -2.78447,-0.22255 l -1.32292,-0.21866 v -0.6594 c 0,-0.36267 0.24371,-0.6594 0.54158,-0.6594 0.29787,0 0.93287,-0.25638 1.41111,-0.56974 l 0.86953,-0.56974 -0.0105,-1.10595 c -0.006,-0.60828 -0.44231,-2.36658 -0.97013,-3.90735 l -0.95969,-2.80139 -1.41111,-0.41472 c -0.77611,-0.22809 -2.36361,-0.59834 -3.52778,-0.82277 l -2.11666,-0.40806 -0.86979,1.15472 c -2.07728,2.75779 -9.374375,9.29657 -11.099865,9.94638 l -0.86297,0.32499 -2.05036,-0.32499 -2.05036,-0.32499 v -0.88194 -0.88195 l 1.83632,-0.10608 1.83632,-0.10609 1.4645,-1.83419 c 0.80547,-1.00881 2.14211,-3.18357 2.97031,-4.8328 l 1.50582,-2.99862 0.14965,-2.39182 0.14965,-2.39182 -0.48722,0.18696 c -0.26797,0.10283 -0.78434,0.18696 -1.1475,0.18696 -0.36315,0 -1.35748,0.70722 -2.20963,1.57159 l -1.54935,1.57158 -1.02471,-0.27576 -1.02471,-0.27576 -0.036,-0.67846 c -0.0748,-1.41023 -0.15994,-1.54992 -0.89529,-1.46806 l -0.75486,0.084 -0.35276,-1.02982 -0.35276,-1.02981 0.40206,-1.1119 c 0.22114,-0.61154 0.40207,-1.70382 0.40207,-2.42729 0,-0.72346 0.2482,-1.79534 0.55154,-2.38195 l 0.55154,-1.06656 -0.2249,-1.02398 c -0.1237,-0.56319 -0.1281,-1.18061 -0.01,-1.37206 l 0.21513,-0.34808 0.82472,0.37577 0.82472,0.37577 0.83838,-0.46376 c 0.49519,-0.27392 2.86006,-0.57506 5.77726,-0.73566 2.716395,-0.14955 5.812015,-0.45372 6.879165,-0.67593 1.06716,-0.2222 2.83452,-0.41417 3.92747,-0.42658 l 1.98719,-0.0226 0.93035,0.60959 0.93036,0.60959 2.55051,-0.51595 c 5.07668,-1.02697 9.41958,-1.3627 15.52092,-1.19982 l 6.07959,0.16229 3.72226,1.46884 c 4.22514,1.66729 5.98458,2.71481 8.91912,5.31023 4.69791,4.155 8.67192,4.54593 14.09722,1.38677 1.31832,-0.76766 2.9427,-1.4843 3.60972,-1.59255 l 1.21278,-0.1968 0.22211,0.5788 c 0.47405,1.23535 -1.19861,2.26817 -6.87082,4.24253 l -3.63762,1.26618 h -2.0185 c -2.68878,0 -5.14809,-0.77249 -7.27618,-2.28551 -1.86143,-1.32343 -2.22345,-1.19221 -1.60505,0.58176 0.21157,0.60691 0.38468,1.62819 0.38468,2.26951 0,0.64132 0.38896,2.24481 0.86436,3.56333 l 0.86436,2.3973 1.60557,1.41111 1.60558,1.41111 0.54659,2.11666 c 0.30062,1.16417 0.86814,2.66221 1.26115,3.32899 l 0.71456,1.21232 -0.21849,1.16464 c -0.28453,1.51666 -2.54178,2.58253 -3.48072,1.64359 z"
       id="path489381" /></g></svg>
