<?xml version="1.0" encoding="UTF-8"?>
<svg xmlns="http://www.w3.org/2000/svg" xmlns:xlink="http://www.w3.org/1999/xlink" width="236.75pt" height="119.5pt" viewBox="0 0 236.75 119.5" version="1.1">
<g id="surface162">
<path style=" stroke:none;fill-rule:nonzero;fill:rgb(0%,0%,0%);fill-opacity:1;" d="M 235.101562 0.25 C 234.828125 0.375 233.875 1.25 233 2.226562 C 231.050781 4.425781 229.550781 5.601562 226.375 7.375 C 225 8.125 223.449219 9.226562 222.949219 9.773438 C 222.074219 10.75 221.625 11.472656 219.347656 15.625 C 217.023438 19.898438 217.023438 19.925781 212.199219 25.550781 C 210.574219 27.425781 208.074219 30.050781 206.625 31.425781 C 204.199219 33.675781 203.625 34.074219 199.175781 36.449219 C 194.902344 38.722656 193.777344 39.199219 189 40.75 C 186.050781 41.699219 181.949219 42.824219 179.875 43.273438 C 177.824219 43.699219 174.5 44.472656 172.5 45 C 168.824219 45.976562 163.550781 46.75 160.476562 46.75 C 159.453125 46.75 157.527344 46.425781 155.226562 45.875 C 153.25 45.375 150.550781 44.75 149.25 44.476562 C 146.074219 43.777344 139.476562 41.625 137.625 40.675781 C 134.023438 38.777344 131.324219 36.925781 126.773438 33.175781 C 125.222656 31.902344 117.574219 28.152344 115.25 27.527344 C 106.574219 25.203125 89.148438 24.101562 76.648438 25.101562 C 70.796875 25.578125 69.25 25.925781 61 28.726562 C 52.574219 31.550781 47.050781 34.277344 42.476562 37.828125 C 38.527344 40.902344 37.101562 41.902344 33.25 44.429688 C 31.675781 45.453125 29.699219 46.753906 28.875 47.328125 C 26.625 48.851562 20 53.851562 19.050781 54.726562 C 18.601562 55.152344 18.125 55.5 17.976562 55.5 C 17.851562 55.5 17.625 55.726562 17.453125 55.976562 C 17.152344 56.453125 17.152344 56.453125 15.953125 55.976562 C 14.179688 55.277344 9.503906 54 8.703125 54 C 7.753906 54 7.179688 54.898438 7.476562 55.925781 C 7.828125 57.152344 8.226562 57.75 10.175781 60.050781 L 12.027344 62.199219 L 11.402344 64.050781 C 11.078125 65.050781 9.753906 68.074219 8.476562 70.75 C 5.953125 76.101562 4.578125 80 2.75 87 C 2.074219 89.550781 1.199219 92.800781 0.773438 94.226562 C -0.175781 97.375 -0.175781 97.800781 0.648438 99.875 C 1.796875 102.726562 3.171875 103.398438 6.074219 102.476562 C 7.074219 102.175781 8 101.828125 8.175781 101.703125 C 8.324219 101.578125 9.5 100.003906 10.777344 98.203125 C 14.203125 93.378906 17.652344 89.628906 22.378906 85.453125 C 25.328125 82.878906 32.402344 77.953125 35.152344 76.554688 C 35.703125 76.28125 37.027344 75.78125 38.128906 75.429688 C 39.878906 74.90625 40.753906 74.804688 45.277344 74.679688 C 51.277344 74.503906 50.878906 74.378906 53.878906 77.179688 C 55.804688 78.929688 55.828125 78.980469 55.953125 80.355469 C 56.078125 81.804688 55.828125 84.207031 54.976562 90.003906 C 54.703125 91.855469 54.328125 94.828125 54.125 96.628906 C 53.925781 98.402344 53.574219 101.003906 53.324219 102.355469 L 52.898438 104.832031 L 51.097656 106.355469 C 49.472656 107.730469 48.949219 108.03125 46.097656 109.003906 C 44.324219 109.628906 42.546875 110.355469 42.148438 110.628906 C 40.625 111.652344 39.5 114.152344 39.5 116.554688 C 39.5 117.578125 40.148438 118.679688 41 119.128906 C 41.824219 119.554688 44.375 119.605469 46.375 119.253906 C 47.074219 119.128906 50.550781 118.855469 54.125 118.628906 C 60.898438 118.230469 61.476562 118.128906 63.75 117.003906 C 66.625 115.527344 69.148438 112.027344 76.425781 99.402344 C 78.300781 96.128906 79.902344 93.578125 79.949219 93.726562 C 80.222656 94.527344 79.425781 99.527344 78.625 102.125 C 77.476562 105.75 76.75 106.851562 74.300781 108.699219 C 71.5 110.847656 70.777344 112.148438 71.25 114.324219 C 71.601562 116.074219 71.800781 116.300781 72.773438 116.300781 C 73.25 116.277344 75.847656 116.226562 78.574219 116.175781 L 83.523438 116.074219 L 85.347656 115.148438 C 87.671875 114.023438 88.523438 113.046875 90.023438 109.847656 C 91.398438 106.898438 91.921875 105.222656 93 100.148438 C 94.375 93.671875 96.050781 89.347656 98.875 85 C 101.476562 80.949219 106.476562 77.226562 111.875 75.300781 C 113.898438 74.574219 114.425781 74.5 116.898438 74.5 C 121.023438 74.5 122.296875 75 124.347656 77.398438 C 125.222656 78.421875 126.699219 80.472656 127.621094 81.972656 C 129.597656 85.171875 130.746094 86.273438 134.644531 88.574219 C 139.144531 91.25 141.71875 94.425781 143.269531 99.25 C 143.894531 101.175781 143.996094 101.875 143.871094 102.898438 C 143.796875 103.625 143.570312 104.375 143.421875 104.574219 C 143.246094 104.800781 141.871094 105.597656 140.347656 106.347656 C 136.496094 108.273438 135.472656 109.421875 135.847656 111.324219 C 136.074219 112.425781 137.121094 113.425781 138.574219 113.898438 C 140.375 114.5 144.597656 114.25 147.574219 113.375 C 150.722656 112.476562 154.722656 110.523438 155.574219 109.5 C 157.824219 106.851562 159.800781 100.101562 159.800781 95.25 C 159.777344 91.125 158.324219 84.875 156.375 80.625 C 156.199219 80.199219 155.625 78.851562 155.125 77.625 C 154.625 76.375 152.824219 72.726562 151.175781 69.449219 C 149.5 66.199219 148.199219 63.472656 148.300781 63.375 C 148.375 63.273438 149.675781 63.351562 151.175781 63.5 C 152.726562 63.675781 155.726562 63.75 158.125 63.699219 C 161.925781 63.597656 162.824219 63.5 166.5 62.648438 C 171.925781 61.421875 177.324219 59.574219 181.5 57.523438 C 184.148438 56.222656 185.773438 55.199219 189.125 52.671875 C 192.425781 50.171875 194.074219 49.121094 196.5 47.945312 C 209.25 41.820312 210.25 41.246094 213.675781 38.121094 C 218.652344 33.570312 220.125 31.820312 221.875 28.421875 C 222.675781 26.871094 223.949219 24.570312 224.699219 23.273438 C 225.449219 22 226.722656 19.523438 227.550781 17.773438 C 228.625 15.5 229.675781 13.824219 231.277344 11.699219 C 234.003906 8.148438 236.851562 2.648438 236.703125 1.324219 C 236.601562 0.5 235.804688 -0.0273438 235.101562 0.25 Z M 235.101562 0.25 "/>
</g>
</svg>
