<?xml version="1.0" encoding="UTF-8" standalone="no"?>
<!-- Created with Inkscape (http://www.inkscape.org/) -->

<svg
   version="1.1"
   id="svg985"
   width="371.57864"
   height="239.42101"
   viewBox="0 0 371.57864 239.42101"
   sodipodi:docname="Dicotyles tajacu.svg"
   inkscape:version="1.2.2 (732a01da63, 2022-12-09)"
   xmlns:inkscape="http://www.inkscape.org/namespaces/inkscape"
   xmlns:sodipodi="http://sodipodi.sourceforge.net/DTD/sodipodi-0.dtd"
   xmlns="http://www.w3.org/2000/svg"
   xmlns:svg="http://www.w3.org/2000/svg">
  <defs
     id="defs989" />
  <sodipodi:namedview
     id="namedview987"
     pagecolor="#ffffff"
     bordercolor="#000000"
     borderopacity="0.25"
     inkscape:showpageshadow="2"
     inkscape:pageopacity="0.0"
     inkscape:pagecheckerboard="0"
     inkscape:deskcolor="#d1d1d1"
     showgrid="false"
     inkscape:zoom="1.6487373"
     inkscape:cx="121.00169"
     inkscape:cy="113.72339"
     inkscape:window-width="1920"
     inkscape:window-height="1111"
     inkscape:window-x="-9"
     inkscape:window-y="-9"
     inkscape:window-maximized="1"
     inkscape:current-layer="g991" />
  <g
     inkscape:groupmode="layer"
     inkscape:label="Image"
     id="g991"
     transform="translate(-132.61632,-59.600538)">
    <path
       style="fill:#000000"
       d="m 313.82468,298.05908 c -5.53809,-1.60514 -6.51558,-4.46817 -7.44686,-21.81172 -1.10515,-20.58137 -1.55329,-23.28168 -4.61142,-27.78632 -1.84045,-2.711 -2.96493,-6.33012 -3.89019,-12.52056 -1.31615,-8.80572 -2.35282,-11.77272 -5.29599,-15.15743 -2.71642,-3.12395 -5.39975,-3.54048 -13.21131,-2.05076 -4.90325,0.93508 -14.46301,1.41356 -28.25742,1.41434 l -20.84723,0.001 -6.65277,6.33668 c -3.65902,3.48518 -9.46765,8.01921 -12.90805,10.07562 -3.44041,2.05641 -6.70291,4.57532 -7.25,5.59757 -1.40646,2.62799 -1.20869,7.81263 0.47644,12.49013 0.79258,2.2 1.46081,5.80716 1.48495,8.01591 0.0332,3.03425 1.26072,5.96755 5.02189,12 2.73791,4.39125 4.98791,8.51421 5,9.16213 0.0263,1.41013 -9.30634,2.74028 -14.70393,2.09569 -2.07574,-0.24789 -4.51838,0.008 -5.42809,0.56839 -2.39135,1.47339 -12.28533,-0.95534 -15.6333,-3.83758 -2.6753,-2.30315 -2.7142,-2.51218 -2.82329,-15.16993 -0.0823,-9.55283 -0.63432,-14.75234 -2.15879,-20.33461 -1.1265,-4.125 -3.36262,-12.33945 -4.96916,-18.25434 -3.38956,-12.47938 -5.69943,-15.74548 -11.13575,-15.74548 -2.7422,0 -3.25902,-0.26667 -2.32569,-1.2 1.38883,-1.38883 1.62606,-3.18135 0.31369,-2.37026 -0.48747,0.30127 -1.13588,-0.40661 -1.44092,-1.57307 -0.40695,-1.55618 -1.10282,-1.97747 -2.61369,-1.58237 -2.44745,0.64002 -2.61389,-0.49792 -0.53655,-3.66834 2.09906,-3.20357 -0.009,-5.13184 -3.96599,-3.62746 -1.47771,0.56183 -2.84263,1.0215 -3.03316,1.0215 -0.79223,0 0.13717,-2.67728 1.70786,-4.91975 2.22517,-3.17687 1.27475,-4.42405 -2.86005,-3.75306 -3.0534,0.4955 -3.27957,0.37013 -2.37646,-1.31735 1.5823,-2.95655 0.17448,-5.26913 -2.75941,-4.53277 l -2.4936,0.62586 1.91678,-3.30147 c 2.50508,-4.31474 2.0517,-7.25191 -0.87742,-5.6843 -1.88755,1.01019 -2.00786,0.89765 -1.34023,-1.25367 0.4034,-1.29992 0.89786,-4.32639 1.0988,-6.72549 0.35373,-4.22336 0.30522,-4.30759 -1.52623,-2.65014 -1.8388,1.66409 -1.88117,1.54114 -1.5184,-4.4063 0.24829,-4.07053 0.0247,-5.90277 -0.66805,-5.47462 -0.63621,0.3932 -0.83903,-0.0859 -0.52142,-1.23171 0.2859,-1.03138 1.06891,-4.35023 1.74002,-7.37523 1.63589,-7.37374 8.21659,-22.70259 12.44146,-28.98073 8.10135,-12.03857 18.59241,-25.113956 26.50564,-33.034977 11.92742,-11.939158 23.99534,-17.925108 49.00733,-24.308696 12.61503,-3.219621 38.68619,-2.907061 59.40235,0.712159 12.89324,2.252515 16.29641,3.26944 25.24252,7.542904 5.68709,2.716663 11.58103,5.065051 13.09764,5.21864 1.51662,0.15359 8.15749,-0.07908 14.75749,-0.517032 10.09329,-0.669762 13.89059,-0.470685 23.89858,1.252907 6.54422,1.127056 12.22104,1.849903 12.61516,1.606326 0.39411,-0.243577 0.59809,-1.522242 0.45327,-2.841478 -0.2411,-2.196343 0.17083,-2.444326 4.88485,-2.940732 5.7011,-0.600351 9.23025,-0.330473 15.03114,1.149444 5.0765,1.295112 8.66119,0.02623 7.9211,-2.803855 -0.67266,-2.572268 0.27099,-2.572733 6.08031,-0.003 2.55125,1.128541 5.10325,1.764753 5.67109,1.413804 0.56785,-0.350948 2.15037,0.0944 3.51672,0.989668 1.36635,0.895265 2.89047,1.376713 3.38693,1.069883 0.49646,-0.306829 1.18984,-0.09319 1.54085,0.474752 0.35101,0.567943 1.03452,0.78768 1.51893,0.488304 0.4844,-0.299376 1.37588,0.380887 1.98107,1.511696 0.60519,1.130809 1.48933,1.815609 1.96476,1.521778 0.47543,-0.293832 1.01535,-0.193935 1.19983,0.221991 0.18448,0.415927 2.01399,2.009825 4.06558,3.541996 2.70178,2.017745 4.10614,4.085454 5.09391,7.5 1.0546,3.645542 2.36259,5.450102 5.76984,7.960282 12.29598,9.058676 18.24369,15.998716 40.25076,46.966206 4.77326,6.71674 10.42091,13.61237 12.55034,15.32363 2.12943,1.71125 5.29729,5.09649 7.03969,7.52273 3.00956,4.19074 3.13361,4.72471 2.48044,10.67638 -0.64388,5.86706 -4.5484,15.80407 -6.182,15.73321 -0.40323,-0.0175 -1.60666,-0.6925 -2.67428,-1.5 -2.47046,-1.86856 -5.03333,-1.84778 -13.35335,0.10829 -16.13291,3.7929 -26.62569,7.61181 -38.20552,13.90512 -4.11676,2.23734 -9.28235,4.00677 -41.07856,14.0711 -13.81577,4.37306 -20.50405,5.37678 -31.3282,4.70149 -10.02211,-0.62525 -11.59324,0.22588 -11.59324,6.28039 0,1.73378 -0.91667,5.81027 -2.03704,9.05887 -5.47336,15.87039 -2.86789,29.48946 8.98178,46.9488 2.98298,4.39513 3.70308,6.17718 2.89133,7.15527 -1.30195,1.56876 -9.33699,1.72102 -13.538,0.25654 -2.60625,-0.90854 -3.1659,-1.7952 -4.26054,-6.75 -0.69309,-3.13723 -1.61754,-6.15406 -2.05433,-6.70406 -0.43679,-0.55 -1.57,-3.7 -2.51826,-7 -0.94825,-3.3 -3.19701,-8.93933 -4.99723,-12.53185 -1.80023,-3.59252 -3.79066,-8.45376 -4.42317,-10.80275 -1.44235,-5.35647 -4.58317,-8.7932 -6.54676,-7.16356 -2.05245,1.70338 -7.15945,14.66575 -8.51123,21.60284 -1.79963,9.23532 -0.11056,23.05511 3.37659,27.627 1.45027,1.90141 2.63686,3.91596 2.63686,4.47679 0,0.56082 -2.08781,1.30585 -4.63957,1.65561 -5.47448,0.75036 -5.91158,0.73055 -9.99447,-0.45281 z"
       id="path995" />
  </g>
</svg>
