<?xml version="1.0" encoding="UTF-8" standalone="no"?>
<!-- Created with Inkscape (http://www.inkscape.org/) -->

<svg
   version="1.1"
   id="svg182"
   width="276.69009"
   height="308.68961"
   viewBox="0 0 276.69009 308.68961"
   sodipodi:docname="Tinamus mayor.svg"
   inkscape:version="1.2.2 (732a01da63, 2022-12-09)"
   xmlns:inkscape="http://www.inkscape.org/namespaces/inkscape"
   xmlns:sodipodi="http://sodipodi.sourceforge.net/DTD/sodipodi-0.dtd"
   xmlns="http://www.w3.org/2000/svg"
   xmlns:svg="http://www.w3.org/2000/svg">
  <defs
     id="defs186" />
  <sodipodi:namedview
     id="namedview184"
     pagecolor="#ffffff"
     bordercolor="#000000"
     borderopacity="0.25"
     inkscape:showpageshadow="2"
     inkscape:pageopacity="0.0"
     inkscape:pagecheckerboard="0"
     inkscape:deskcolor="#d1d1d1"
     showgrid="false"
     inkscape:zoom="2.4511494"
     inkscape:cx="117.69988"
     inkscape:cy="159.31301"
     inkscape:window-width="1920"
     inkscape:window-height="1111"
     inkscape:window-x="-9"
     inkscape:window-y="-9"
     inkscape:window-maximized="1"
     inkscape:current-layer="g188" />
  <g
     inkscape:groupmode="layer"
     inkscape:label="Image"
     id="g188"
     transform="translate(-57.780244,-14.77486)">
    <path
       style="fill:#090909;stroke:none;stroke-width:0.8"
       d="m 263.27035,42.664478 h 0.8 c 4.988,-7.84264 25.344,-19.53712 34.4,-17.6 v 0.8 c -15.232,0.17992 -3.3784,18.11168 2.4,6.4 h 0.8 c -3.7152,10.6652 -22.5664,-3.48264 -32.7256,6.48392 -16.3392,16.03072 4.1912,45.91128 -20.0744,61.540882 -13.8856,8.944 -36.0296,0.4544 -52.00001,2.6064 -32.6784,4.4016 -60.2144,21.5776 -82.328,45.3688 -15.733599,16.9264 -27.251118,37.3416 -36.411519,58.4 -2.2916,5.268 -9.01344,16.5312 -7.71728,22.316 1.06624,4.7584 9.13456,4.8656 12.856801,4.8832 13.305119,0.064 22.920798,-4.0336 34.399998,-10.3992 -12.8016,11.6768 -30.307118,14.8344 -46.399999,9.6 2.0048,6.8152 10.624401,7.9696 16.800001,7.9992 13.060478,0.0632 39.536798,-1.7672 46.399998,-15.1992 l -16.8,-2.4 -22.399999,-15.0344 -17.6,7.0344 v -0.8 c 20.85616,-2.8104 9.476081,-13.2064 12.800001,-27.2 h 0.8 c -4.79848,35.46 50.643998,39.8384 75.199998,33.7016 48.28001,-12.0672 69.99201,-47.128 69.60001,-94.5016 h 0.8 c 0.9008,11.4112 1.9376,21.4072 -0.5296,32.8 -7.704,35.5736 -39.32161,57.6064 -73.07041,65.6808 -8.1344,1.9464 -17.7696,-0.5288 -25.6,2.0808 -6.9224,2.308 -13.1,7.8072 -20,10.6384 v 0.8 c 8.844,2.828 26.284,1.9864 33.3584,7.1504 9.5128,6.9456 6.4488,29.8416 7.6696,40.0496 0.4736,3.9576 2.5104,9.6496 0.8896,13.4936 -1.9552,4.636 -9.0512,3.904 -11.5176,8.9064 13.4896,-3.8 26.612,10.0072 40,15.2 -1.9368,-3.7896 -5.6104,-5.9288 -9.6,-7.2 v -0.8 l 21.6,4.8 c -3.0104,-5.7944 -12.3688,-7.7624 -18.4,-8.8 v -0.8 l 12.8,2.4 v -0.8 c -8.048,-3.764 -18.9056,-3.348 -25.4936,-9.7704 -10.704,-10.4352 -9.3536,-47.6008 2.2944,-56.3752 7.3392,-5.5288 23.032,-5.2344 31.9992,-8.4288 28.88881,-10.2888 57.29521,-26.4632 72.55041,-54.2256 10.904,-19.8432 15.6056,-43.0528 14.6184,-65.6 -0.8232,-18.789604 -6.3104,-36.571202 -0.1696,-55.200002 4.632,-14.05136 31.2656,-19.91536 44.2008,-16.8 -2.824,-8.30648 -12.8592,-13.75712 -20.8,-9.6 l 4,-3.2 c -11.0432,-29.1363996 -54.3136,-21.63712 -54.4,9.6 m 36,-16.8 2.4,4 h -0.8 l -1.6,-4 m 2.9336,5.33336 -0.2672,0.53328 0.2672,-0.53328 m 11.4664,5.06664 14.4,5.6 v 0.8 c -3.1712,-0.65448 -15.4776,-2.02528 -14.4,-6.4 m -44.8,34.4 -0.8,0.8 0.8,-0.8 m -0.8,1.6 -0.8,5.6 h -0.8 l 1.6,-5.6 m 5.6,0 -0.8,6.4 h -0.8 l 1.6,-6.4 m 10.4,1.6 -1.6,10.4 h -0.8 l 2.4,-10.4 m -5.6,0.8 -0.8,8 h -0.8 l 1.6,-8 m -6.6664,5.3336 -0.2672,0.5328 0.2672,-0.5328 m -58.1336,34.666402 11.2,5.6 v 0.8 c -4.4496,-0.1048 -10.0008,-1.516 -11.2,-6.4 m -15.20001,1.6 v 1.6 l -13.6,1.6 c 3.7392,-3.2664 8.8504,-3.1968 13.6,-3.2 m -25.6,6.4 v 0.8 l -10.4,4.8 c 2.7072,-3.4496 6.048,-5.1544 10.4,-5.6 m 63.20001,1.6 v 2.4 h -0.8 l 0.8,-2.4 m -13.6,8 v 0.8 l -10.4,0.8 10.4,-1.6 m -26.40001,2.4 v 0.8 l -14.4,4 c 3.6464,-3.5264 9.448,-4.584 14.4,-4.8 m -47.2,2.4 -10.4,10.4 10.4,-10.4 m 81.60001,5.6 c -2.1072,4.412 -5.6288,6.152 -10.4,6.4 v -0.8 l 10.4,-5.6 m -58.40001,0.8 c -2.0592,5.3008 -6.6128,8.8032 -12,10.4 v -0.8 l 12,-9.6 m 39.20001,3.2 c -3.42321,4.02 -8.40321,5.9464 -13.60001,6.4 v -0.8 l 13.60001,-5.6 m -84.80001,7.2 c -1.328,6.4176 -3.5416,11.2552 -9.6,14.4 l 9.6,-14.4 m 24.8,2.4 c -0.3,6.548 -3.404,12.664 -10.4,13.6 v -0.8 l 10.4,-12.8 m 80.80001,0.8 c -1.7008,4.8672 -4.3392,8.5384 -9.6,9.6 v -0.8 l 9.6,-8.8 m -40.80001,3.2 c -2.6048,5.9176 -6.8464,8.4464 -12.8,10.4 v -0.8 l 12.8,-9.6 m 23.20001,2.4 c -2.1128,5.4392 -6.45761,8.2712 -12.00001,9.6 v -0.8 l 12.00001,-8.8 m -40.80001,0.8 c -1.6128,5.4264 -5.3424,8.2176 -10.4,10.4 l 10.4,-10.4 m 45.60001,8 c -0.844,5.6056 -3.6392,8.9288 -8.8,11.2 l 8.8,-11.2 m -112.00001,0.8 c -0.5352,6.0928 -3.1456,10.3056 -8.799999,12.8 l 8.799999,-12.8 m 25.6,0 c -0.5728,6.5632 -3.4136,12.9904 -10.4,14.4 v -0.8 l 10.4,-13.6 m 65.6,3.2 c -1.5208,6.0184 -5.0304,9.4712 -11.2,10.4 v -0.8 l 11.2,-9.6 m -42.4,2.4 c -0.9368,6.2224 -4.3104,9.736 -10.4,11.2 v -0.8 l 10.4,-10.4 m 21.6,1.6 c -1.4856,5.8912 -4.872,10.4992 -11.2,11.2 v -0.8 l 11.2,-10.4 m 32.80001,6.4 c -1.59521,4.5824 -5.09041,6.128 -9.60001,7.2 v -0.8 l 9.60001,-6.4 m -96.00001,1.6 c -1.5736,6.0656 -3.3608,10.3824 -9.6,12.8 l 8,-12.8 h 1.6 m 25.6,0.8 c -1.6976,6.7168 -5.9312,10.0856 -12.8,10.4 v -0.8 l 12.8,-9.6 m 54.4,0 c -1.8408,5.7616 -6.008,8.9864 -12,9.6 v -0.8 l 12,-8.8 m -18.4,7.2 c -0.7056,6.8456 -5.3184,10.612 -12,11.2 v -0.8 c 5.692,-1.8176 8.5472,-5.84 12,-10.4 m -16,1.6 c -2.0736,6.4888 -6.9976,9.2976 -13.6,9.6 v -0.8 l 13.6,-8.8 m 33.6,2.4 c -3.2176,8.656 -11.7568,14.6448 -20.8,16 v -0.8 l 20.8,-15.2 m -73.6,0.8 c -1.4168,7.8208 -7.264,9.58 -14.4,9.6 v -0.8 c 6.592,-0.8928 10.08,-4.0304 14.4,-8.8 m 12.8,5.6 c -1.2072,6.6624 -5.6648,8.7432 -12,8.8 v -0.8 c 5.5224,-0.8736 8.188,-4.3096 12,-8 m 18.4,4.8 c -2.4976,5.3072 -7.2336,7.2464 -12.8,8 v -0.8 l 12.8,-7.2 m 17.6,0 c -2.204,5.3968 -7.3264,6.9608 -12.8,7.2 v -0.8 l 12.8,-6.4 m -65.6,6.4 c -4.773919,9.7696 -20.095278,13.1592 -29.599999,9.6 v -0.8 c 11.970721,1.5128 19.59776,-2.6328 29.599999,-8.8 m -35.199999,18.4 c -2.1876,2.8456 -4.25448,5.8048 -6.2352,8.8 -17.28656,26.1416 25.768721,7.3016 34.2352,-0.8 -11.826719,-1.3 -17.39912,-1.9024 -28,-8 m 107.999999,10.4 c 2.9064,12.2352 19.8432,37.896 16.1696,50.22 -0.9656,3.2392 -7.5192,4.532 -9.7696,7.38 15.6768,-1.2392 26.7808,12.2984 42.40001,16 l -9.6,-7.2 v -0.8 l 21.6,5.6 c -3.5528,-6.588 -13.828,-9.3744 -20.8,-10.4 v -0.8 l 15.2,4 c -5.2072,-7.9496 -20.296,-6.816 -27.98801,-12.084 -13.6864,-9.3736 -16.5768,-39.9888 -13.612,-54.316 l -13.6,2.4 m 38.40001,65.0664 c 0.6184,0 0.128,0.3984 -0.2664,0.2672 l 0.2664,-0.2672 m -36.80001,4 0.2664,0.2672 c -0.3944,0.1312 -0.8848,-0.2672 -0.2664,-0.2672 z"
       id="path854" />
  </g>
</svg>
